<mxfile host="Electron" agent="Mozilla/5.0 (Windows NT 10.0; Win64; x64) AppleWebKit/537.36 (KHTML, like Gecko) draw.io/26.0.4 Chrome/128.0.6613.186 Electron/32.2.5 Safari/537.36" version="26.0.4">
  <diagram name="Página-1" id="v0I3-2rEsh6XnJ5ouGjw">
    <mxGraphModel dx="2647" dy="1703" grid="0" gridSize="10" guides="1" tooltips="1" connect="1" arrows="1" fold="1" page="1" pageScale="1" pageWidth="1654" pageHeight="2336" math="0" shadow="0">
      <root>
        <mxCell id="0" />
        <mxCell id="1" parent="0" />
        <mxCell id="F1pNL2VdmpR060pusoOi-2" value="&lt;table cellpadding=&quot;5&quot; cellspacing=&quot;0&quot; style=&quot;width: 100%; height: 100%;&quot;&gt;&lt;tbody&gt;&lt;tr&gt;&lt;td height=&quot;50%&quot;&gt;&lt;/td&gt;&lt;/tr&gt;&lt;tr&gt;&lt;td align=&quot;center&quot; height=&quot;50%&quot;&gt;&lt;font style=&quot;font-size: 18px;&quot;&gt;CLIENTE&lt;/font&gt;&lt;/td&gt;&lt;/tr&gt;&lt;/tbody&gt;&lt;/table&gt;" style="strokeWidth=2;html=1;shape=mxgraph.lean_mapping.outside_sources;whiteSpace=wrap;align=center;" parent="1" vertex="1">
          <mxGeometry x="2710" y="220" width="190" height="140" as="geometry" />
        </mxCell>
        <mxCell id="F1pNL2VdmpR060pusoOi-4" value="&lt;font style=&quot;font-size: 18px;&quot;&gt;PROVEEDOR&amp;nbsp;&lt;/font&gt;" style="strokeWidth=2;html=1;shape=mxgraph.lean_mapping.outside_sources;whiteSpace=wrap;align=center;" parent="1" vertex="1">
          <mxGeometry x="235" y="200" width="190" height="140" as="geometry" />
        </mxCell>
        <mxCell id="F1pNL2VdmpR060pusoOi-5" value="Previo a automatización&amp;nbsp;" style="strokeWidth=2;html=1;shape=mxgraph.lean_mapping.manufacturing_process;fontSize=12;verticalAlign=middle;html=1;align=center;whiteSpace=wrap;" parent="1" vertex="1">
          <mxGeometry x="1440" y="200" width="230" height="140" as="geometry" />
        </mxCell>
        <mxCell id="F1pNL2VdmpR060pusoOi-6" value="CONTROL DE PRODUCCION" style="text;fontSize=12;spacingLeft=2;verticalAlign=top;html=1;align=center;spacingTop=-5;resizeWidth=1;whiteSpace=wrap;" parent="F1pNL2VdmpR060pusoOi-5" vertex="1">
          <mxGeometry width="230" height="50" as="geometry" />
        </mxCell>
        <mxCell id="F1pNL2VdmpR060pusoOi-299" style="edgeStyle=orthogonalEdgeStyle;rounded=0;orthogonalLoop=1;jettySize=auto;html=1;entryX=0.75;entryY=0;entryDx=0;entryDy=0;" parent="1" source="F1pNL2VdmpR060pusoOi-9" target="F1pNL2VdmpR060pusoOi-33" edge="1">
          <mxGeometry relative="1" as="geometry">
            <Array as="points">
              <mxPoint x="1555" y="670" />
              <mxPoint x="388" y="670" />
            </Array>
          </mxGeometry>
        </mxCell>
        <mxCell id="F1pNL2VdmpR060pusoOi-302" style="edgeStyle=orthogonalEdgeStyle;rounded=0;orthogonalLoop=1;jettySize=auto;html=1;" parent="1" source="F1pNL2VdmpR060pusoOi-9" target="F1pNL2VdmpR060pusoOi-43" edge="1">
          <mxGeometry relative="1" as="geometry">
            <Array as="points">
              <mxPoint x="1555" y="670" />
              <mxPoint x="1840" y="670" />
            </Array>
          </mxGeometry>
        </mxCell>
        <mxCell id="F1pNL2VdmpR060pusoOi-303" style="edgeStyle=orthogonalEdgeStyle;rounded=0;orthogonalLoop=1;jettySize=auto;html=1;" parent="1" source="F1pNL2VdmpR060pusoOi-9" target="F1pNL2VdmpR060pusoOi-37" edge="1">
          <mxGeometry relative="1" as="geometry">
            <Array as="points">
              <mxPoint x="1555" y="670" />
              <mxPoint x="1310" y="670" />
            </Array>
          </mxGeometry>
        </mxCell>
        <mxCell id="F1pNL2VdmpR060pusoOi-305" style="edgeStyle=orthogonalEdgeStyle;rounded=0;orthogonalLoop=1;jettySize=auto;html=1;entryX=0.5;entryY=0;entryDx=0;entryDy=0;" parent="1" source="F1pNL2VdmpR060pusoOi-9" target="F1pNL2VdmpR060pusoOi-35" edge="1">
          <mxGeometry relative="1" as="geometry">
            <Array as="points">
              <mxPoint x="1555" y="670" />
              <mxPoint x="820" y="670" />
              <mxPoint x="820" y="802" />
            </Array>
          </mxGeometry>
        </mxCell>
        <mxCell id="F1pNL2VdmpR060pusoOi-307" style="edgeStyle=orthogonalEdgeStyle;rounded=0;orthogonalLoop=1;jettySize=auto;html=1;" parent="1" source="F1pNL2VdmpR060pusoOi-9" target="F1pNL2VdmpR060pusoOi-57" edge="1">
          <mxGeometry relative="1" as="geometry">
            <Array as="points">
              <mxPoint x="1555" y="670" />
              <mxPoint x="2320" y="670" />
            </Array>
          </mxGeometry>
        </mxCell>
        <mxCell id="F1pNL2VdmpR060pusoOi-9" value="&lt;span style=&quot;font-size: 18px; background-color: transparent; color: light-dark(rgb(0, 0, 0), rgb(255, 255, 255));&quot;&gt;Supervisor de producción&amp;nbsp;&lt;/span&gt;" style="strokeWidth=2;html=1;shape=mxgraph.lean_mapping.schedule;whiteSpace=wrap;align=center;" parent="1" vertex="1">
          <mxGeometry x="1440" y="410" width="230" height="130" as="geometry" />
        </mxCell>
        <mxCell id="F1pNL2VdmpR060pusoOi-10" value="&lt;span style=&quot;font-size: 16px; background-color: rgb(255, 255, 255);&quot;&gt;Ordenes semanales&lt;/span&gt;&lt;div style=&quot;font-size: 16px; background-color: rgb(255, 255, 255);&quot;&gt;&lt;br&gt;&lt;div&gt;&lt;span style=&quot;background-color: transparent; color: light-dark(rgb(0, 0, 0), rgb(255, 255, 255));&quot;&gt;681.8 kg - pp&lt;/span&gt;&lt;/div&gt;&lt;div&gt;474 cajas&lt;/div&gt;&lt;/div&gt;" style="strokeWidth=2;html=1;shape=mxgraph.lean_mapping.schedule;whiteSpace=wrap;align=center;" parent="1" vertex="1">
          <mxGeometry x="920" y="410" width="230" height="130" as="geometry" />
        </mxCell>
        <mxCell id="F1pNL2VdmpR060pusoOi-11" value="&lt;font style=&quot;font-size: 18px;&quot;&gt;Pronostico Semanal&lt;/font&gt;&lt;div&gt;&lt;font style=&quot;font-size: 18px;&quot;&gt;2961 juguetes&amp;nbsp;&lt;/font&gt;&lt;/div&gt;" style="strokeWidth=2;html=1;shape=mxgraph.lean_mapping.schedule;whiteSpace=wrap;align=center;" parent="1" vertex="1">
          <mxGeometry x="920" y="60" width="230" height="130" as="geometry" />
        </mxCell>
        <mxCell id="F1pNL2VdmpR060pusoOi-12" value="&lt;span style=&quot;font-size: 16px; background-color: rgb(255, 255, 255);&quot;&gt;Ordenes diarias&lt;/span&gt;&lt;div style=&quot;font-size: 16px; background-color: rgb(255, 255, 255);&quot;&gt;&lt;br&gt;&lt;div&gt;&lt;span style=&quot;background-color: transparent; color: light-dark(rgb(0, 0, 0), rgb(255, 255, 255));&quot;&gt;136,4 kg - pp&lt;/span&gt;&lt;/div&gt;&lt;div&gt;24&lt;span style=&quot;background-color: light-dark(rgb(255, 255, 255), rgb(18, 18, 18)); color: light-dark(rgb(0, 0, 0), rgb(255, 255, 255));&quot;&gt;&amp;nbsp;cajas&lt;/span&gt;&lt;/div&gt;&lt;/div&gt;" style="strokeWidth=2;html=1;shape=mxgraph.lean_mapping.schedule;whiteSpace=wrap;align=center;" parent="1" vertex="1">
          <mxGeometry x="1965" y="410" width="230" height="130" as="geometry" />
        </mxCell>
        <mxCell id="F1pNL2VdmpR060pusoOi-13" value="&lt;font style=&quot;font-size: 18px;&quot;&gt;Pronostico Mensual&lt;/font&gt;&lt;div&gt;&lt;span style=&quot;font-size: 18px;&quot;&gt;11844 juguetes&lt;/span&gt;&lt;/div&gt;" style="strokeWidth=2;html=1;shape=mxgraph.lean_mapping.schedule;whiteSpace=wrap;align=center;" parent="1" vertex="1">
          <mxGeometry x="1945" y="60" width="230" height="130" as="geometry" />
        </mxCell>
        <mxCell id="F1pNL2VdmpR060pusoOi-14" value="" style="shape=mxgraph.lean_mapping.electronic_info_flow_edge;html=1;rounded=0;entryX=1;entryY=0.5;entryDx=0;entryDy=0;exitX=0.005;exitY=0.625;exitDx=0;exitDy=0;exitPerimeter=0;" parent="1" source="F1pNL2VdmpR060pusoOi-2" target="F1pNL2VdmpR060pusoOi-13" edge="1">
          <mxGeometry x="-0.1341" y="-49" width="100" height="100" relative="1" as="geometry">
            <mxPoint x="2265" y="300" as="sourcePoint" />
            <mxPoint x="2365" y="200" as="targetPoint" />
            <mxPoint x="-1" as="offset" />
          </mxGeometry>
        </mxCell>
        <mxCell id="F1pNL2VdmpR060pusoOi-15" value="" style="shape=mxgraph.lean_mapping.electronic_info_flow_edge;html=1;rounded=0;entryX=1;entryY=0.5;entryDx=0;entryDy=0;exitX=-0.003;exitY=0.596;exitDx=0;exitDy=0;exitPerimeter=0;" parent="1" source="F1pNL2VdmpR060pusoOi-2" target="F1pNL2VdmpR060pusoOi-12" edge="1">
          <mxGeometry width="100" height="100" relative="1" as="geometry">
            <mxPoint x="2265" y="560" as="sourcePoint" />
            <mxPoint x="2365" y="460" as="targetPoint" />
          </mxGeometry>
        </mxCell>
        <mxCell id="F1pNL2VdmpR060pusoOi-16" value="" style="shape=mxgraph.lean_mapping.electronic_info_flow_edge;html=1;rounded=0;entryX=1.006;entryY=0.654;entryDx=0;entryDy=0;entryPerimeter=0;exitX=0;exitY=0.5;exitDx=0;exitDy=0;" parent="1" source="F1pNL2VdmpR060pusoOi-12" target="F1pNL2VdmpR060pusoOi-5" edge="1">
          <mxGeometry width="100" height="100" relative="1" as="geometry">
            <mxPoint x="1760" y="460" as="sourcePoint" />
            <mxPoint x="1860" y="360" as="targetPoint" />
          </mxGeometry>
        </mxCell>
        <mxCell id="F1pNL2VdmpR060pusoOi-18" value="" style="shape=mxgraph.lean_mapping.electronic_info_flow_edge;html=1;rounded=0;entryX=1;entryY=0.5;entryDx=0;entryDy=0;exitX=0;exitY=0.5;exitDx=0;exitDy=0;" parent="1" source="F1pNL2VdmpR060pusoOi-13" target="F1pNL2VdmpR060pusoOi-5" edge="1">
          <mxGeometry width="100" height="100" relative="1" as="geometry">
            <mxPoint x="1720" y="150" as="sourcePoint" />
            <mxPoint x="1820" y="50" as="targetPoint" />
          </mxGeometry>
        </mxCell>
        <mxCell id="F1pNL2VdmpR060pusoOi-19" value="" style="shape=mxgraph.lean_mapping.electronic_info_flow_edge;html=1;rounded=0;entryX=1;entryY=0.5;entryDx=0;entryDy=0;exitX=0;exitY=0.5;exitDx=0;exitDy=0;" parent="1" source="F1pNL2VdmpR060pusoOi-5" target="F1pNL2VdmpR060pusoOi-11" edge="1">
          <mxGeometry width="100" height="100" relative="1" as="geometry">
            <mxPoint x="1190" y="340" as="sourcePoint" />
            <mxPoint x="1290" y="240" as="targetPoint" />
          </mxGeometry>
        </mxCell>
        <mxCell id="F1pNL2VdmpR060pusoOi-20" value="" style="shape=mxgraph.lean_mapping.electronic_info_flow_edge;html=1;rounded=0;entryX=1;entryY=0.5;entryDx=0;entryDy=0;exitX=0;exitY=0.5;exitDx=0;exitDy=0;" parent="1" source="F1pNL2VdmpR060pusoOi-5" target="F1pNL2VdmpR060pusoOi-10" edge="1">
          <mxGeometry width="100" height="100" relative="1" as="geometry">
            <mxPoint x="1130" y="350" as="sourcePoint" />
            <mxPoint x="1230" y="250" as="targetPoint" />
          </mxGeometry>
        </mxCell>
        <mxCell id="F1pNL2VdmpR060pusoOi-21" value="" style="shape=mxgraph.lean_mapping.electronic_info_flow_edge;html=1;rounded=0;entryX=1.01;entryY=0.596;entryDx=0;entryDy=0;entryPerimeter=0;exitX=-0.013;exitY=0.425;exitDx=0;exitDy=0;exitPerimeter=0;" parent="1" source="F1pNL2VdmpR060pusoOi-11" target="F1pNL2VdmpR060pusoOi-4" edge="1">
          <mxGeometry width="100" height="100" relative="1" as="geometry">
            <mxPoint x="360" y="340" as="sourcePoint" />
            <mxPoint x="460" y="240" as="targetPoint" />
          </mxGeometry>
        </mxCell>
        <mxCell id="F1pNL2VdmpR060pusoOi-22" value="" style="shape=mxgraph.lean_mapping.electronic_info_flow_edge;html=1;rounded=0;entryX=1;entryY=0.5;entryDx=0;entryDy=0;exitX=0;exitY=0.5;exitDx=0;exitDy=0;" parent="1" source="F1pNL2VdmpR060pusoOi-10" target="F1pNL2VdmpR060pusoOi-4" edge="1">
          <mxGeometry width="100" height="100" relative="1" as="geometry">
            <mxPoint x="230" y="630" as="sourcePoint" />
            <mxPoint x="330" y="530" as="targetPoint" />
          </mxGeometry>
        </mxCell>
        <mxCell id="F1pNL2VdmpR060pusoOi-23" value="" style="shape=mxgraph.lean_mapping.electronic_info_flow_edge;html=1;rounded=0;entryX=0.5;entryY=0;entryDx=0;entryDy=0;exitX=0.5;exitY=1;exitDx=0;exitDy=0;" parent="1" source="F1pNL2VdmpR060pusoOi-5" target="F1pNL2VdmpR060pusoOi-9" edge="1">
          <mxGeometry x="0.7824" y="14" width="100" height="100" relative="1" as="geometry">
            <mxPoint x="1560" y="410" as="sourcePoint" />
            <mxPoint x="1660" y="350" as="targetPoint" />
            <Array as="points">
              <mxPoint x="1780" y="210" />
            </Array>
            <mxPoint as="offset" />
          </mxGeometry>
        </mxCell>
        <mxCell id="F1pNL2VdmpR060pusoOi-24" value="" style="shape=flexArrow;html=1;rounded=0;exitX=0.5;exitY=1;exitDx=0;exitDy=0;entryX=0.5;entryY=0;entryDx=0;entryDy=0;" parent="1" source="F1pNL2VdmpR060pusoOi-4" target="F1pNL2VdmpR060pusoOi-33" edge="1">
          <mxGeometry width="100" height="100" relative="1" as="geometry">
            <mxPoint x="170" y="530" as="sourcePoint" />
            <mxPoint x="177" y="746.0554285714284" as="targetPoint" />
            <Array as="points" />
          </mxGeometry>
        </mxCell>
        <mxCell id="F1pNL2VdmpR060pusoOi-32" value="Se cuenta con tres inyectoras cada inyectora produce lotes con diferentes piezas de diferentes colores." style="strokeWidth=2;html=1;shape=mxgraph.lean_mapping.manufacturing_process;fontSize=12;verticalAlign=middle;html=1;align=center;whiteSpace=wrap;" parent="1" vertex="1">
          <mxGeometry x="215" y="802" width="230" height="140" as="geometry" />
        </mxCell>
        <mxCell id="F1pNL2VdmpR060pusoOi-33" value="Inyeccion" style="text;fontSize=12;spacingLeft=2;verticalAlign=top;html=1;align=center;spacingTop=-5;resizeWidth=1;whiteSpace=wrap;" parent="F1pNL2VdmpR060pusoOi-32" vertex="1">
          <mxGeometry width="230" height="50" as="geometry" />
        </mxCell>
        <mxCell id="F1pNL2VdmpR060pusoOi-34" value="Cada inyectora produce lotes con diferentes piezas de diferentes colores; al haber tres inyectoras, se requieren tres operarios para separar las piezas." style="strokeWidth=2;html=1;shape=mxgraph.lean_mapping.manufacturing_process;fontSize=12;verticalAlign=middle;html=1;align=center;whiteSpace=wrap;" parent="1" vertex="1">
          <mxGeometry x="700" y="802" width="230" height="140" as="geometry" />
        </mxCell>
        <mxCell id="F1pNL2VdmpR060pusoOi-35" value="Separar piezas" style="text;fontSize=12;spacingLeft=2;verticalAlign=top;html=1;align=center;spacingTop=-5;resizeWidth=1;whiteSpace=wrap;" parent="F1pNL2VdmpR060pusoOi-34" vertex="1">
          <mxGeometry width="230" height="50" as="geometry" />
        </mxCell>
        <mxCell id="F1pNL2VdmpR060pusoOi-36" value="Dado que los procesos de inyección pueden presentar defectos como la presencia de rebabas, es necesario contar con operarios que realicen controles de calidad y mejoren los acabados." style="strokeWidth=2;html=1;shape=mxgraph.lean_mapping.manufacturing_process;fontSize=12;verticalAlign=middle;html=1;align=center;whiteSpace=wrap;" parent="1" vertex="1">
          <mxGeometry x="1190" y="802" width="230" height="140" as="geometry" />
        </mxCell>
        <mxCell id="F1pNL2VdmpR060pusoOi-37" value="Dar acabados" style="text;fontSize=12;spacingLeft=2;verticalAlign=top;html=1;align=center;spacingTop=-5;resizeWidth=1;whiteSpace=wrap;" parent="F1pNL2VdmpR060pusoOi-36" vertex="1">
          <mxGeometry width="230" height="50" as="geometry" />
        </mxCell>
        <mxCell id="F1pNL2VdmpR060pusoOi-42" value="&lt;span style=&quot;font-size: 16px; background-color: rgb(255, 255, 255);&quot;&gt;Los productos son ensambladas por un operario&lt;/span&gt;" style="strokeWidth=2;html=1;shape=mxgraph.lean_mapping.manufacturing_process;fontSize=12;verticalAlign=middle;html=1;align=center;whiteSpace=wrap;" parent="1" vertex="1">
          <mxGeometry x="1725" y="802" width="230" height="140" as="geometry" />
        </mxCell>
        <mxCell id="F1pNL2VdmpR060pusoOi-43" value="Ensamble" style="text;fontSize=12;spacingLeft=2;verticalAlign=top;html=1;align=center;spacingTop=-5;resizeWidth=1;whiteSpace=wrap;" parent="F1pNL2VdmpR060pusoOi-42" vertex="1">
          <mxGeometry width="230" height="50" as="geometry" />
        </mxCell>
        <mxCell id="F1pNL2VdmpR060pusoOi-56" value="&lt;span style=&quot;font-size: 16px; background-color: rgb(255, 255, 255);&quot;&gt;El producto es empaquetado y se dirige a una caja con capacidad de 25 por referencia.&lt;/span&gt;" style="strokeWidth=2;html=1;shape=mxgraph.lean_mapping.manufacturing_process;fontSize=12;verticalAlign=middle;html=1;align=center;whiteSpace=wrap;" parent="1" vertex="1">
          <mxGeometry x="2195" y="802" width="230" height="140" as="geometry" />
        </mxCell>
        <mxCell id="F1pNL2VdmpR060pusoOi-57" value="Empaquetado" style="text;fontSize=12;spacingLeft=2;verticalAlign=top;html=1;align=center;spacingTop=-5;resizeWidth=1;whiteSpace=wrap;" parent="F1pNL2VdmpR060pusoOi-56" vertex="1">
          <mxGeometry width="230" height="50" as="geometry" />
        </mxCell>
        <mxCell id="F1pNL2VdmpR060pusoOi-58" value="" style="verticalLabelPosition=bottom;html=1;verticalAlign=top;strokeWidth=2;shape=mxgraph.lean_mapping.push_arrow;" parent="1" vertex="1">
          <mxGeometry x="1955" y="857" width="235" height="30" as="geometry" />
        </mxCell>
        <mxCell id="F1pNL2VdmpR060pusoOi-59" value="" style="edgeStyle=orthogonalEdgeStyle;rounded=0;orthogonalLoop=1;jettySize=auto;html=1;" parent="1" source="F1pNL2VdmpR060pusoOi-60" target="F1pNL2VdmpR060pusoOi-58" edge="1">
          <mxGeometry relative="1" as="geometry" />
        </mxCell>
        <mxCell id="F1pNL2VdmpR060pusoOi-60" value="" style="verticalLabelPosition=bottom;html=1;verticalAlign=top;strokeWidth=2;shape=mxgraph.lean_mapping.inventory_box;" parent="1" vertex="1">
          <mxGeometry x="2022.5" y="942" width="100" height="90" as="geometry" />
        </mxCell>
        <mxCell id="F1pNL2VdmpR060pusoOi-66" value="&lt;span style=&quot;font-size: 16px; background-color: rgb(255, 255, 255);&quot;&gt;las cajas son recogidas y despachadas&lt;/span&gt;" style="strokeWidth=2;html=1;shape=mxgraph.lean_mapping.manufacturing_process;fontSize=12;verticalAlign=middle;html=1;align=center;whiteSpace=wrap;" parent="1" vertex="1">
          <mxGeometry x="2690" y="802" width="230" height="140" as="geometry" />
        </mxCell>
        <mxCell id="F1pNL2VdmpR060pusoOi-67" value="Despacho" style="text;fontSize=12;spacingLeft=2;verticalAlign=top;html=1;align=center;spacingTop=-5;resizeWidth=1;whiteSpace=wrap;" parent="F1pNL2VdmpR060pusoOi-66" vertex="1">
          <mxGeometry width="230" height="50" as="geometry" />
        </mxCell>
        <mxCell id="F1pNL2VdmpR060pusoOi-114" value="" style="text;fontSize=8;spacingLeft=2;verticalAlign=middle;html=1;whiteSpace=wrap;" parent="1" vertex="1">
          <mxGeometry x="630" y="1490" width="180" height="90.00000000000001" as="geometry" />
        </mxCell>
        <mxCell id="F1pNL2VdmpR060pusoOi-154" value="" style="shape=table;startSize=0;container=1;collapsible=0;childLayout=tableLayout;" parent="1" vertex="1">
          <mxGeometry x="255" y="1010" width="190" height="280" as="geometry" />
        </mxCell>
        <mxCell id="F1pNL2VdmpR060pusoOi-155" value="" style="shape=tableRow;horizontal=0;startSize=0;swimlaneHead=0;swimlaneBody=0;strokeColor=inherit;top=0;left=0;bottom=0;right=0;collapsible=0;dropTarget=0;fillColor=none;points=[[0,0.5],[1,0.5]];portConstraint=eastwest;" parent="F1pNL2VdmpR060pusoOi-154" vertex="1">
          <mxGeometry width="190" height="40" as="geometry" />
        </mxCell>
        <mxCell id="F1pNL2VdmpR060pusoOi-156" value="&lt;font style=&quot;font-size: 18px;&quot;&gt;TC = 60 s/u&lt;/font&gt;" style="shape=partialRectangle;html=1;whiteSpace=wrap;connectable=0;strokeColor=inherit;overflow=hidden;fillColor=none;top=0;left=0;bottom=0;right=0;pointerEvents=1;align=left;" parent="F1pNL2VdmpR060pusoOi-155" vertex="1">
          <mxGeometry width="190" height="40" as="geometry">
            <mxRectangle width="190" height="40" as="alternateBounds" />
          </mxGeometry>
        </mxCell>
        <mxCell id="F1pNL2VdmpR060pusoOi-157" value="" style="shape=tableRow;horizontal=0;startSize=0;swimlaneHead=0;swimlaneBody=0;strokeColor=inherit;top=0;left=0;bottom=0;right=0;collapsible=0;dropTarget=0;fillColor=none;points=[[0,0.5],[1,0.5]];portConstraint=eastwest;" parent="F1pNL2VdmpR060pusoOi-154" vertex="1">
          <mxGeometry y="40" width="190" height="40" as="geometry" />
        </mxCell>
        <mxCell id="F1pNL2VdmpR060pusoOi-158" value="&lt;font style=&quot;font-size: 18px;&quot;&gt;TCP = 1 s/u&lt;/font&gt;" style="shape=partialRectangle;html=1;whiteSpace=wrap;connectable=0;strokeColor=inherit;overflow=hidden;fillColor=none;top=0;left=0;bottom=0;right=0;pointerEvents=1;align=left;" parent="F1pNL2VdmpR060pusoOi-157" vertex="1">
          <mxGeometry width="190" height="40" as="geometry">
            <mxRectangle width="190" height="40" as="alternateBounds" />
          </mxGeometry>
        </mxCell>
        <mxCell id="F1pNL2VdmpR060pusoOi-159" value="" style="shape=tableRow;horizontal=0;startSize=0;swimlaneHead=0;swimlaneBody=0;strokeColor=inherit;top=0;left=0;bottom=0;right=0;collapsible=0;dropTarget=0;fillColor=none;points=[[0,0.5],[1,0.5]];portConstraint=eastwest;" parent="F1pNL2VdmpR060pusoOi-154" vertex="1">
          <mxGeometry y="80" width="190" height="40" as="geometry" />
        </mxCell>
        <mxCell id="F1pNL2VdmpR060pusoOi-160" value="&lt;font style=&quot;font-size: 18px;&quot;&gt;DISP = 98%&lt;/font&gt;" style="shape=partialRectangle;html=1;whiteSpace=wrap;connectable=0;strokeColor=inherit;overflow=hidden;fillColor=none;top=0;left=0;bottom=0;right=0;pointerEvents=1;align=left;" parent="F1pNL2VdmpR060pusoOi-159" vertex="1">
          <mxGeometry width="190" height="40" as="geometry">
            <mxRectangle width="190" height="40" as="alternateBounds" />
          </mxGeometry>
        </mxCell>
        <mxCell id="F1pNL2VdmpR060pusoOi-161" value="" style="shape=tableRow;horizontal=0;startSize=0;swimlaneHead=0;swimlaneBody=0;strokeColor=inherit;top=0;left=0;bottom=0;right=0;collapsible=0;dropTarget=0;fillColor=none;points=[[0,0.5],[1,0.5]];portConstraint=eastwest;" parent="F1pNL2VdmpR060pusoOi-154" vertex="1">
          <mxGeometry y="120" width="190" height="40" as="geometry" />
        </mxCell>
        <mxCell id="F1pNL2VdmpR060pusoOi-162" value="&lt;font style=&quot;font-size: 18px;&quot;&gt;TD = 12 horas&lt;/font&gt;" style="shape=partialRectangle;html=1;whiteSpace=wrap;connectable=0;strokeColor=inherit;overflow=hidden;fillColor=none;top=0;left=0;bottom=0;right=0;pointerEvents=1;align=left;" parent="F1pNL2VdmpR060pusoOi-161" vertex="1">
          <mxGeometry width="190" height="40" as="geometry">
            <mxRectangle width="190" height="40" as="alternateBounds" />
          </mxGeometry>
        </mxCell>
        <mxCell id="F1pNL2VdmpR060pusoOi-163" value="" style="shape=tableRow;horizontal=0;startSize=0;swimlaneHead=0;swimlaneBody=0;strokeColor=inherit;top=0;left=0;bottom=0;right=0;collapsible=0;dropTarget=0;fillColor=none;points=[[0,0.5],[1,0.5]];portConstraint=eastwest;" parent="F1pNL2VdmpR060pusoOi-154" vertex="1">
          <mxGeometry y="160" width="190" height="40" as="geometry" />
        </mxCell>
        <mxCell id="F1pNL2VdmpR060pusoOi-164" value="&lt;font style=&quot;font-size: 18px;&quot;&gt;TURNOS = 2&lt;/font&gt;" style="shape=partialRectangle;html=1;whiteSpace=wrap;connectable=0;strokeColor=inherit;overflow=hidden;fillColor=none;top=0;left=0;bottom=0;right=0;pointerEvents=1;align=left;" parent="F1pNL2VdmpR060pusoOi-163" vertex="1">
          <mxGeometry width="190" height="40" as="geometry">
            <mxRectangle width="190" height="40" as="alternateBounds" />
          </mxGeometry>
        </mxCell>
        <mxCell id="F1pNL2VdmpR060pusoOi-165" value="" style="shape=tableRow;horizontal=0;startSize=0;swimlaneHead=0;swimlaneBody=0;strokeColor=inherit;top=0;left=0;bottom=0;right=0;collapsible=0;dropTarget=0;fillColor=none;points=[[0,0.5],[1,0.5]];portConstraint=eastwest;" parent="F1pNL2VdmpR060pusoOi-154" vertex="1">
          <mxGeometry y="200" width="190" height="40" as="geometry" />
        </mxCell>
        <mxCell id="F1pNL2VdmpR060pusoOi-166" value="&lt;font style=&quot;font-size: 18px;&quot;&gt;OPERARIOS = 3&lt;/font&gt;" style="shape=partialRectangle;html=1;whiteSpace=wrap;connectable=0;strokeColor=inherit;overflow=hidden;fillColor=none;top=0;left=0;bottom=0;right=0;pointerEvents=1;align=left;" parent="F1pNL2VdmpR060pusoOi-165" vertex="1">
          <mxGeometry width="190" height="40" as="geometry">
            <mxRectangle width="190" height="40" as="alternateBounds" />
          </mxGeometry>
        </mxCell>
        <mxCell id="F1pNL2VdmpR060pusoOi-167" value="" style="shape=tableRow;horizontal=0;startSize=0;swimlaneHead=0;swimlaneBody=0;strokeColor=inherit;top=0;left=0;bottom=0;right=0;collapsible=0;dropTarget=0;fillColor=none;points=[[0,0.5],[1,0.5]];portConstraint=eastwest;" parent="F1pNL2VdmpR060pusoOi-154" vertex="1">
          <mxGeometry y="240" width="190" height="40" as="geometry" />
        </mxCell>
        <mxCell id="F1pNL2VdmpR060pusoOi-168" value="&lt;font style=&quot;font-size: 18px;&quot;&gt;CANT MAQUINA: 3&lt;/font&gt;" style="shape=partialRectangle;html=1;whiteSpace=wrap;connectable=0;strokeColor=inherit;overflow=hidden;fillColor=none;top=0;left=0;bottom=0;right=0;pointerEvents=1;align=left;" parent="F1pNL2VdmpR060pusoOi-167" vertex="1">
          <mxGeometry width="190" height="40" as="geometry">
            <mxRectangle width="190" height="40" as="alternateBounds" />
          </mxGeometry>
        </mxCell>
        <mxCell id="F1pNL2VdmpR060pusoOi-170" value="" style="shape=table;startSize=0;container=1;collapsible=0;childLayout=tableLayout;" parent="1" vertex="1">
          <mxGeometry x="720" y="1010" width="190" height="280" as="geometry" />
        </mxCell>
        <mxCell id="F1pNL2VdmpR060pusoOi-171" value="" style="shape=tableRow;horizontal=0;startSize=0;swimlaneHead=0;swimlaneBody=0;strokeColor=inherit;top=0;left=0;bottom=0;right=0;collapsible=0;dropTarget=0;fillColor=none;points=[[0,0.5],[1,0.5]];portConstraint=eastwest;" parent="F1pNL2VdmpR060pusoOi-170" vertex="1">
          <mxGeometry width="190" height="40" as="geometry" />
        </mxCell>
        <mxCell id="F1pNL2VdmpR060pusoOi-172" value="&lt;font style=&quot;font-size: 18px;&quot;&gt;TC = 90 s/u&lt;/font&gt;" style="shape=partialRectangle;html=1;whiteSpace=wrap;connectable=0;strokeColor=inherit;overflow=hidden;fillColor=none;top=0;left=0;bottom=0;right=0;pointerEvents=1;align=left;" parent="F1pNL2VdmpR060pusoOi-171" vertex="1">
          <mxGeometry width="190" height="40" as="geometry">
            <mxRectangle width="190" height="40" as="alternateBounds" />
          </mxGeometry>
        </mxCell>
        <mxCell id="F1pNL2VdmpR060pusoOi-173" value="" style="shape=tableRow;horizontal=0;startSize=0;swimlaneHead=0;swimlaneBody=0;strokeColor=inherit;top=0;left=0;bottom=0;right=0;collapsible=0;dropTarget=0;fillColor=none;points=[[0,0.5],[1,0.5]];portConstraint=eastwest;" parent="F1pNL2VdmpR060pusoOi-170" vertex="1">
          <mxGeometry y="40" width="190" height="40" as="geometry" />
        </mxCell>
        <mxCell id="F1pNL2VdmpR060pusoOi-174" value="&lt;font style=&quot;font-size: 18px;&quot;&gt;TCP = 1 s/u&lt;/font&gt;" style="shape=partialRectangle;html=1;whiteSpace=wrap;connectable=0;strokeColor=inherit;overflow=hidden;fillColor=none;top=0;left=0;bottom=0;right=0;pointerEvents=1;align=left;" parent="F1pNL2VdmpR060pusoOi-173" vertex="1">
          <mxGeometry width="190" height="40" as="geometry">
            <mxRectangle width="190" height="40" as="alternateBounds" />
          </mxGeometry>
        </mxCell>
        <mxCell id="F1pNL2VdmpR060pusoOi-175" value="" style="shape=tableRow;horizontal=0;startSize=0;swimlaneHead=0;swimlaneBody=0;strokeColor=inherit;top=0;left=0;bottom=0;right=0;collapsible=0;dropTarget=0;fillColor=none;points=[[0,0.5],[1,0.5]];portConstraint=eastwest;" parent="F1pNL2VdmpR060pusoOi-170" vertex="1">
          <mxGeometry y="80" width="190" height="40" as="geometry" />
        </mxCell>
        <mxCell id="F1pNL2VdmpR060pusoOi-176" value="&lt;font style=&quot;font-size: 18px;&quot;&gt;DISP = 99,27%&lt;/font&gt;" style="shape=partialRectangle;html=1;whiteSpace=wrap;connectable=0;strokeColor=inherit;overflow=hidden;fillColor=none;top=0;left=0;bottom=0;right=0;pointerEvents=1;align=left;" parent="F1pNL2VdmpR060pusoOi-175" vertex="1">
          <mxGeometry width="190" height="40" as="geometry">
            <mxRectangle width="190" height="40" as="alternateBounds" />
          </mxGeometry>
        </mxCell>
        <mxCell id="F1pNL2VdmpR060pusoOi-177" value="" style="shape=tableRow;horizontal=0;startSize=0;swimlaneHead=0;swimlaneBody=0;strokeColor=inherit;top=0;left=0;bottom=0;right=0;collapsible=0;dropTarget=0;fillColor=none;points=[[0,0.5],[1,0.5]];portConstraint=eastwest;" parent="F1pNL2VdmpR060pusoOi-170" vertex="1">
          <mxGeometry y="120" width="190" height="40" as="geometry" />
        </mxCell>
        <mxCell id="F1pNL2VdmpR060pusoOi-178" value="&lt;span style=&quot;font-size: 18px;&quot;&gt;TD = 12 horas&lt;/span&gt;" style="shape=partialRectangle;html=1;whiteSpace=wrap;connectable=0;strokeColor=inherit;overflow=hidden;fillColor=none;top=0;left=0;bottom=0;right=0;pointerEvents=1;align=left;" parent="F1pNL2VdmpR060pusoOi-177" vertex="1">
          <mxGeometry width="190" height="40" as="geometry">
            <mxRectangle width="190" height="40" as="alternateBounds" />
          </mxGeometry>
        </mxCell>
        <mxCell id="F1pNL2VdmpR060pusoOi-179" value="" style="shape=tableRow;horizontal=0;startSize=0;swimlaneHead=0;swimlaneBody=0;strokeColor=inherit;top=0;left=0;bottom=0;right=0;collapsible=0;dropTarget=0;fillColor=none;points=[[0,0.5],[1,0.5]];portConstraint=eastwest;" parent="F1pNL2VdmpR060pusoOi-170" vertex="1">
          <mxGeometry y="160" width="190" height="40" as="geometry" />
        </mxCell>
        <mxCell id="F1pNL2VdmpR060pusoOi-180" value="&lt;font style=&quot;font-size: 18px;&quot;&gt;TURNOS = 2&lt;/font&gt;" style="shape=partialRectangle;html=1;whiteSpace=wrap;connectable=0;strokeColor=inherit;overflow=hidden;fillColor=none;top=0;left=0;bottom=0;right=0;pointerEvents=1;align=left;" parent="F1pNL2VdmpR060pusoOi-179" vertex="1">
          <mxGeometry width="190" height="40" as="geometry">
            <mxRectangle width="190" height="40" as="alternateBounds" />
          </mxGeometry>
        </mxCell>
        <mxCell id="F1pNL2VdmpR060pusoOi-181" value="" style="shape=tableRow;horizontal=0;startSize=0;swimlaneHead=0;swimlaneBody=0;strokeColor=inherit;top=0;left=0;bottom=0;right=0;collapsible=0;dropTarget=0;fillColor=none;points=[[0,0.5],[1,0.5]];portConstraint=eastwest;" parent="F1pNL2VdmpR060pusoOi-170" vertex="1">
          <mxGeometry y="200" width="190" height="40" as="geometry" />
        </mxCell>
        <mxCell id="F1pNL2VdmpR060pusoOi-182" value="&lt;font style=&quot;font-size: 18px;&quot;&gt;OPERARIOS = 3&lt;/font&gt;" style="shape=partialRectangle;html=1;whiteSpace=wrap;connectable=0;strokeColor=inherit;overflow=hidden;fillColor=none;top=0;left=0;bottom=0;right=0;pointerEvents=1;align=left;" parent="F1pNL2VdmpR060pusoOi-181" vertex="1">
          <mxGeometry width="190" height="40" as="geometry">
            <mxRectangle width="190" height="40" as="alternateBounds" />
          </mxGeometry>
        </mxCell>
        <mxCell id="F1pNL2VdmpR060pusoOi-183" value="" style="shape=tableRow;horizontal=0;startSize=0;swimlaneHead=0;swimlaneBody=0;strokeColor=inherit;top=0;left=0;bottom=0;right=0;collapsible=0;dropTarget=0;fillColor=none;points=[[0,0.5],[1,0.5]];portConstraint=eastwest;" parent="F1pNL2VdmpR060pusoOi-170" vertex="1">
          <mxGeometry y="240" width="190" height="40" as="geometry" />
        </mxCell>
        <mxCell id="F1pNL2VdmpR060pusoOi-184" value="&lt;font style=&quot;font-size: 18px;&quot;&gt;CANT MAQUINA: 0&lt;/font&gt;" style="shape=partialRectangle;html=1;whiteSpace=wrap;connectable=0;strokeColor=inherit;overflow=hidden;fillColor=none;top=0;left=0;bottom=0;right=0;pointerEvents=1;align=left;" parent="F1pNL2VdmpR060pusoOi-183" vertex="1">
          <mxGeometry width="190" height="40" as="geometry">
            <mxRectangle width="190" height="40" as="alternateBounds" />
          </mxGeometry>
        </mxCell>
        <mxCell id="F1pNL2VdmpR060pusoOi-185" value="" style="shape=table;startSize=0;container=1;collapsible=0;childLayout=tableLayout;" parent="1" vertex="1">
          <mxGeometry x="1210" y="1010" width="190" height="280" as="geometry" />
        </mxCell>
        <mxCell id="F1pNL2VdmpR060pusoOi-186" value="" style="shape=tableRow;horizontal=0;startSize=0;swimlaneHead=0;swimlaneBody=0;strokeColor=inherit;top=0;left=0;bottom=0;right=0;collapsible=0;dropTarget=0;fillColor=none;points=[[0,0.5],[1,0.5]];portConstraint=eastwest;" parent="F1pNL2VdmpR060pusoOi-185" vertex="1">
          <mxGeometry width="190" height="40" as="geometry" />
        </mxCell>
        <mxCell id="F1pNL2VdmpR060pusoOi-187" value="&lt;font style=&quot;font-size: 18px;&quot;&gt;TC = 10 s/u&lt;/font&gt;" style="shape=partialRectangle;html=1;whiteSpace=wrap;connectable=0;strokeColor=inherit;overflow=hidden;fillColor=none;top=0;left=0;bottom=0;right=0;pointerEvents=1;align=left;" parent="F1pNL2VdmpR060pusoOi-186" vertex="1">
          <mxGeometry width="190" height="40" as="geometry">
            <mxRectangle width="190" height="40" as="alternateBounds" />
          </mxGeometry>
        </mxCell>
        <mxCell id="F1pNL2VdmpR060pusoOi-188" value="" style="shape=tableRow;horizontal=0;startSize=0;swimlaneHead=0;swimlaneBody=0;strokeColor=inherit;top=0;left=0;bottom=0;right=0;collapsible=0;dropTarget=0;fillColor=none;points=[[0,0.5],[1,0.5]];portConstraint=eastwest;" parent="F1pNL2VdmpR060pusoOi-185" vertex="1">
          <mxGeometry y="40" width="190" height="40" as="geometry" />
        </mxCell>
        <mxCell id="F1pNL2VdmpR060pusoOi-189" value="&lt;font style=&quot;font-size: 18px;&quot;&gt;TCP = 2 s/u&lt;/font&gt;" style="shape=partialRectangle;html=1;whiteSpace=wrap;connectable=0;strokeColor=inherit;overflow=hidden;fillColor=none;top=0;left=0;bottom=0;right=0;pointerEvents=1;align=left;" parent="F1pNL2VdmpR060pusoOi-188" vertex="1">
          <mxGeometry width="190" height="40" as="geometry">
            <mxRectangle width="190" height="40" as="alternateBounds" />
          </mxGeometry>
        </mxCell>
        <mxCell id="F1pNL2VdmpR060pusoOi-190" value="" style="shape=tableRow;horizontal=0;startSize=0;swimlaneHead=0;swimlaneBody=0;strokeColor=inherit;top=0;left=0;bottom=0;right=0;collapsible=0;dropTarget=0;fillColor=none;points=[[0,0.5],[1,0.5]];portConstraint=eastwest;" parent="F1pNL2VdmpR060pusoOi-185" vertex="1">
          <mxGeometry y="80" width="190" height="40" as="geometry" />
        </mxCell>
        <mxCell id="F1pNL2VdmpR060pusoOi-191" value="&lt;font style=&quot;font-size: 18px;&quot;&gt;DISP = 99,27%&lt;/font&gt;" style="shape=partialRectangle;html=1;whiteSpace=wrap;connectable=0;strokeColor=inherit;overflow=hidden;fillColor=none;top=0;left=0;bottom=0;right=0;pointerEvents=1;align=left;" parent="F1pNL2VdmpR060pusoOi-190" vertex="1">
          <mxGeometry width="190" height="40" as="geometry">
            <mxRectangle width="190" height="40" as="alternateBounds" />
          </mxGeometry>
        </mxCell>
        <mxCell id="F1pNL2VdmpR060pusoOi-192" value="" style="shape=tableRow;horizontal=0;startSize=0;swimlaneHead=0;swimlaneBody=0;strokeColor=inherit;top=0;left=0;bottom=0;right=0;collapsible=0;dropTarget=0;fillColor=none;points=[[0,0.5],[1,0.5]];portConstraint=eastwest;" parent="F1pNL2VdmpR060pusoOi-185" vertex="1">
          <mxGeometry y="120" width="190" height="40" as="geometry" />
        </mxCell>
        <mxCell id="F1pNL2VdmpR060pusoOi-193" value="&lt;span style=&quot;font-size: 18px;&quot;&gt;TD = 12 horas&lt;/span&gt;" style="shape=partialRectangle;html=1;whiteSpace=wrap;connectable=0;strokeColor=inherit;overflow=hidden;fillColor=none;top=0;left=0;bottom=0;right=0;pointerEvents=1;align=left;" parent="F1pNL2VdmpR060pusoOi-192" vertex="1">
          <mxGeometry width="190" height="40" as="geometry">
            <mxRectangle width="190" height="40" as="alternateBounds" />
          </mxGeometry>
        </mxCell>
        <mxCell id="F1pNL2VdmpR060pusoOi-194" value="" style="shape=tableRow;horizontal=0;startSize=0;swimlaneHead=0;swimlaneBody=0;strokeColor=inherit;top=0;left=0;bottom=0;right=0;collapsible=0;dropTarget=0;fillColor=none;points=[[0,0.5],[1,0.5]];portConstraint=eastwest;" parent="F1pNL2VdmpR060pusoOi-185" vertex="1">
          <mxGeometry y="160" width="190" height="40" as="geometry" />
        </mxCell>
        <mxCell id="F1pNL2VdmpR060pusoOi-195" value="&lt;font style=&quot;font-size: 18px;&quot;&gt;TURNOS = 2&lt;/font&gt;" style="shape=partialRectangle;html=1;whiteSpace=wrap;connectable=0;strokeColor=inherit;overflow=hidden;fillColor=none;top=0;left=0;bottom=0;right=0;pointerEvents=1;align=left;" parent="F1pNL2VdmpR060pusoOi-194" vertex="1">
          <mxGeometry width="190" height="40" as="geometry">
            <mxRectangle width="190" height="40" as="alternateBounds" />
          </mxGeometry>
        </mxCell>
        <mxCell id="F1pNL2VdmpR060pusoOi-196" value="" style="shape=tableRow;horizontal=0;startSize=0;swimlaneHead=0;swimlaneBody=0;strokeColor=inherit;top=0;left=0;bottom=0;right=0;collapsible=0;dropTarget=0;fillColor=none;points=[[0,0.5],[1,0.5]];portConstraint=eastwest;" parent="F1pNL2VdmpR060pusoOi-185" vertex="1">
          <mxGeometry y="200" width="190" height="40" as="geometry" />
        </mxCell>
        <mxCell id="F1pNL2VdmpR060pusoOi-197" value="&lt;font style=&quot;font-size: 18px;&quot;&gt;OPERARIOS = 1&lt;/font&gt;" style="shape=partialRectangle;html=1;whiteSpace=wrap;connectable=0;strokeColor=inherit;overflow=hidden;fillColor=none;top=0;left=0;bottom=0;right=0;pointerEvents=1;align=left;" parent="F1pNL2VdmpR060pusoOi-196" vertex="1">
          <mxGeometry width="190" height="40" as="geometry">
            <mxRectangle width="190" height="40" as="alternateBounds" />
          </mxGeometry>
        </mxCell>
        <mxCell id="F1pNL2VdmpR060pusoOi-198" value="" style="shape=tableRow;horizontal=0;startSize=0;swimlaneHead=0;swimlaneBody=0;strokeColor=inherit;top=0;left=0;bottom=0;right=0;collapsible=0;dropTarget=0;fillColor=none;points=[[0,0.5],[1,0.5]];portConstraint=eastwest;" parent="F1pNL2VdmpR060pusoOi-185" vertex="1">
          <mxGeometry y="240" width="190" height="40" as="geometry" />
        </mxCell>
        <mxCell id="F1pNL2VdmpR060pusoOi-199" value="&lt;font style=&quot;font-size: 18px;&quot;&gt;CANT MAQUINA: 0&lt;/font&gt;" style="shape=partialRectangle;html=1;whiteSpace=wrap;connectable=0;strokeColor=inherit;overflow=hidden;fillColor=none;top=0;left=0;bottom=0;right=0;pointerEvents=1;align=left;" parent="F1pNL2VdmpR060pusoOi-198" vertex="1">
          <mxGeometry width="190" height="40" as="geometry">
            <mxRectangle width="190" height="40" as="alternateBounds" />
          </mxGeometry>
        </mxCell>
        <mxCell id="F1pNL2VdmpR060pusoOi-200" value="" style="shape=table;startSize=0;container=1;collapsible=0;childLayout=tableLayout;" parent="1" vertex="1">
          <mxGeometry x="1745" y="1010" width="190" height="280" as="geometry" />
        </mxCell>
        <mxCell id="F1pNL2VdmpR060pusoOi-201" value="" style="shape=tableRow;horizontal=0;startSize=0;swimlaneHead=0;swimlaneBody=0;strokeColor=inherit;top=0;left=0;bottom=0;right=0;collapsible=0;dropTarget=0;fillColor=none;points=[[0,0.5],[1,0.5]];portConstraint=eastwest;" parent="F1pNL2VdmpR060pusoOi-200" vertex="1">
          <mxGeometry width="190" height="40" as="geometry" />
        </mxCell>
        <mxCell id="F1pNL2VdmpR060pusoOi-202" value="&lt;font style=&quot;font-size: 18px;&quot;&gt;TC = 100 s/u&lt;/font&gt;" style="shape=partialRectangle;html=1;whiteSpace=wrap;connectable=0;strokeColor=inherit;overflow=hidden;fillColor=none;top=0;left=0;bottom=0;right=0;pointerEvents=1;align=left;" parent="F1pNL2VdmpR060pusoOi-201" vertex="1">
          <mxGeometry width="190" height="40" as="geometry">
            <mxRectangle width="190" height="40" as="alternateBounds" />
          </mxGeometry>
        </mxCell>
        <mxCell id="F1pNL2VdmpR060pusoOi-203" value="" style="shape=tableRow;horizontal=0;startSize=0;swimlaneHead=0;swimlaneBody=0;strokeColor=inherit;top=0;left=0;bottom=0;right=0;collapsible=0;dropTarget=0;fillColor=none;points=[[0,0.5],[1,0.5]];portConstraint=eastwest;" parent="F1pNL2VdmpR060pusoOi-200" vertex="1">
          <mxGeometry y="40" width="190" height="40" as="geometry" />
        </mxCell>
        <mxCell id="F1pNL2VdmpR060pusoOi-204" value="&lt;font style=&quot;font-size: 18px;&quot;&gt;TCP = 1 s/u&lt;/font&gt;" style="shape=partialRectangle;html=1;whiteSpace=wrap;connectable=0;strokeColor=inherit;overflow=hidden;fillColor=none;top=0;left=0;bottom=0;right=0;pointerEvents=1;align=left;" parent="F1pNL2VdmpR060pusoOi-203" vertex="1">
          <mxGeometry width="190" height="40" as="geometry">
            <mxRectangle width="190" height="40" as="alternateBounds" />
          </mxGeometry>
        </mxCell>
        <mxCell id="F1pNL2VdmpR060pusoOi-205" value="" style="shape=tableRow;horizontal=0;startSize=0;swimlaneHead=0;swimlaneBody=0;strokeColor=inherit;top=0;left=0;bottom=0;right=0;collapsible=0;dropTarget=0;fillColor=none;points=[[0,0.5],[1,0.5]];portConstraint=eastwest;" parent="F1pNL2VdmpR060pusoOi-200" vertex="1">
          <mxGeometry y="80" width="190" height="40" as="geometry" />
        </mxCell>
        <mxCell id="F1pNL2VdmpR060pusoOi-206" value="&lt;font style=&quot;font-size: 18px;&quot;&gt;DISP = 99,27%&lt;/font&gt;" style="shape=partialRectangle;html=1;whiteSpace=wrap;connectable=0;strokeColor=inherit;overflow=hidden;fillColor=none;top=0;left=0;bottom=0;right=0;pointerEvents=1;align=left;" parent="F1pNL2VdmpR060pusoOi-205" vertex="1">
          <mxGeometry width="190" height="40" as="geometry">
            <mxRectangle width="190" height="40" as="alternateBounds" />
          </mxGeometry>
        </mxCell>
        <mxCell id="F1pNL2VdmpR060pusoOi-207" value="" style="shape=tableRow;horizontal=0;startSize=0;swimlaneHead=0;swimlaneBody=0;strokeColor=inherit;top=0;left=0;bottom=0;right=0;collapsible=0;dropTarget=0;fillColor=none;points=[[0,0.5],[1,0.5]];portConstraint=eastwest;" parent="F1pNL2VdmpR060pusoOi-200" vertex="1">
          <mxGeometry y="120" width="190" height="40" as="geometry" />
        </mxCell>
        <mxCell id="F1pNL2VdmpR060pusoOi-208" value="&lt;span style=&quot;font-size: 18px;&quot;&gt;TD = 12 horas&lt;/span&gt;" style="shape=partialRectangle;html=1;whiteSpace=wrap;connectable=0;strokeColor=inherit;overflow=hidden;fillColor=none;top=0;left=0;bottom=0;right=0;pointerEvents=1;align=left;" parent="F1pNL2VdmpR060pusoOi-207" vertex="1">
          <mxGeometry width="190" height="40" as="geometry">
            <mxRectangle width="190" height="40" as="alternateBounds" />
          </mxGeometry>
        </mxCell>
        <mxCell id="F1pNL2VdmpR060pusoOi-209" value="" style="shape=tableRow;horizontal=0;startSize=0;swimlaneHead=0;swimlaneBody=0;strokeColor=inherit;top=0;left=0;bottom=0;right=0;collapsible=0;dropTarget=0;fillColor=none;points=[[0,0.5],[1,0.5]];portConstraint=eastwest;" parent="F1pNL2VdmpR060pusoOi-200" vertex="1">
          <mxGeometry y="160" width="190" height="40" as="geometry" />
        </mxCell>
        <mxCell id="F1pNL2VdmpR060pusoOi-210" value="&lt;font style=&quot;font-size: 18px;&quot;&gt;TURNOS = 2&lt;/font&gt;" style="shape=partialRectangle;html=1;whiteSpace=wrap;connectable=0;strokeColor=inherit;overflow=hidden;fillColor=none;top=0;left=0;bottom=0;right=0;pointerEvents=1;align=left;" parent="F1pNL2VdmpR060pusoOi-209" vertex="1">
          <mxGeometry width="190" height="40" as="geometry">
            <mxRectangle width="190" height="40" as="alternateBounds" />
          </mxGeometry>
        </mxCell>
        <mxCell id="F1pNL2VdmpR060pusoOi-211" value="" style="shape=tableRow;horizontal=0;startSize=0;swimlaneHead=0;swimlaneBody=0;strokeColor=inherit;top=0;left=0;bottom=0;right=0;collapsible=0;dropTarget=0;fillColor=none;points=[[0,0.5],[1,0.5]];portConstraint=eastwest;" parent="F1pNL2VdmpR060pusoOi-200" vertex="1">
          <mxGeometry y="200" width="190" height="40" as="geometry" />
        </mxCell>
        <mxCell id="F1pNL2VdmpR060pusoOi-212" value="&lt;font style=&quot;font-size: 18px;&quot;&gt;OPERARIOS = 1&lt;/font&gt;" style="shape=partialRectangle;html=1;whiteSpace=wrap;connectable=0;strokeColor=inherit;overflow=hidden;fillColor=none;top=0;left=0;bottom=0;right=0;pointerEvents=1;align=left;" parent="F1pNL2VdmpR060pusoOi-211" vertex="1">
          <mxGeometry width="190" height="40" as="geometry">
            <mxRectangle width="190" height="40" as="alternateBounds" />
          </mxGeometry>
        </mxCell>
        <mxCell id="F1pNL2VdmpR060pusoOi-213" value="" style="shape=tableRow;horizontal=0;startSize=0;swimlaneHead=0;swimlaneBody=0;strokeColor=inherit;top=0;left=0;bottom=0;right=0;collapsible=0;dropTarget=0;fillColor=none;points=[[0,0.5],[1,0.5]];portConstraint=eastwest;" parent="F1pNL2VdmpR060pusoOi-200" vertex="1">
          <mxGeometry y="240" width="190" height="40" as="geometry" />
        </mxCell>
        <mxCell id="F1pNL2VdmpR060pusoOi-214" value="&lt;font style=&quot;font-size: 18px;&quot;&gt;CANT MAQUINA: 0&lt;/font&gt;" style="shape=partialRectangle;html=1;whiteSpace=wrap;connectable=0;strokeColor=inherit;overflow=hidden;fillColor=none;top=0;left=0;bottom=0;right=0;pointerEvents=1;align=left;" parent="F1pNL2VdmpR060pusoOi-213" vertex="1">
          <mxGeometry width="190" height="40" as="geometry">
            <mxRectangle width="190" height="40" as="alternateBounds" />
          </mxGeometry>
        </mxCell>
        <mxCell id="F1pNL2VdmpR060pusoOi-230" value="" style="shape=table;startSize=0;container=1;collapsible=0;childLayout=tableLayout;" parent="1" vertex="1">
          <mxGeometry x="2220" y="1010" width="190" height="280" as="geometry" />
        </mxCell>
        <mxCell id="F1pNL2VdmpR060pusoOi-231" value="" style="shape=tableRow;horizontal=0;startSize=0;swimlaneHead=0;swimlaneBody=0;strokeColor=inherit;top=0;left=0;bottom=0;right=0;collapsible=0;dropTarget=0;fillColor=none;points=[[0,0.5],[1,0.5]];portConstraint=eastwest;" parent="F1pNL2VdmpR060pusoOi-230" vertex="1">
          <mxGeometry width="190" height="40" as="geometry" />
        </mxCell>
        <mxCell id="F1pNL2VdmpR060pusoOi-232" value="&lt;font style=&quot;font-size: 18px;&quot;&gt;TC = 25 s/u&lt;/font&gt;" style="shape=partialRectangle;html=1;whiteSpace=wrap;connectable=0;strokeColor=inherit;overflow=hidden;fillColor=none;top=0;left=0;bottom=0;right=0;pointerEvents=1;align=left;" parent="F1pNL2VdmpR060pusoOi-231" vertex="1">
          <mxGeometry width="190" height="40" as="geometry">
            <mxRectangle width="190" height="40" as="alternateBounds" />
          </mxGeometry>
        </mxCell>
        <mxCell id="F1pNL2VdmpR060pusoOi-233" value="" style="shape=tableRow;horizontal=0;startSize=0;swimlaneHead=0;swimlaneBody=0;strokeColor=inherit;top=0;left=0;bottom=0;right=0;collapsible=0;dropTarget=0;fillColor=none;points=[[0,0.5],[1,0.5]];portConstraint=eastwest;" parent="F1pNL2VdmpR060pusoOi-230" vertex="1">
          <mxGeometry y="40" width="190" height="40" as="geometry" />
        </mxCell>
        <mxCell id="F1pNL2VdmpR060pusoOi-234" value="&lt;font style=&quot;font-size: 18px;&quot;&gt;TCP = 2 s/u&lt;/font&gt;" style="shape=partialRectangle;html=1;whiteSpace=wrap;connectable=0;strokeColor=inherit;overflow=hidden;fillColor=none;top=0;left=0;bottom=0;right=0;pointerEvents=1;align=left;" parent="F1pNL2VdmpR060pusoOi-233" vertex="1">
          <mxGeometry width="190" height="40" as="geometry">
            <mxRectangle width="190" height="40" as="alternateBounds" />
          </mxGeometry>
        </mxCell>
        <mxCell id="F1pNL2VdmpR060pusoOi-235" value="" style="shape=tableRow;horizontal=0;startSize=0;swimlaneHead=0;swimlaneBody=0;strokeColor=inherit;top=0;left=0;bottom=0;right=0;collapsible=0;dropTarget=0;fillColor=none;points=[[0,0.5],[1,0.5]];portConstraint=eastwest;" parent="F1pNL2VdmpR060pusoOi-230" vertex="1">
          <mxGeometry y="80" width="190" height="40" as="geometry" />
        </mxCell>
        <mxCell id="F1pNL2VdmpR060pusoOi-236" value="&lt;font style=&quot;font-size: 18px;&quot;&gt;DISP = 99,27%&lt;/font&gt;" style="shape=partialRectangle;html=1;whiteSpace=wrap;connectable=0;strokeColor=inherit;overflow=hidden;fillColor=none;top=0;left=0;bottom=0;right=0;pointerEvents=1;align=left;" parent="F1pNL2VdmpR060pusoOi-235" vertex="1">
          <mxGeometry width="190" height="40" as="geometry">
            <mxRectangle width="190" height="40" as="alternateBounds" />
          </mxGeometry>
        </mxCell>
        <mxCell id="F1pNL2VdmpR060pusoOi-237" value="" style="shape=tableRow;horizontal=0;startSize=0;swimlaneHead=0;swimlaneBody=0;strokeColor=inherit;top=0;left=0;bottom=0;right=0;collapsible=0;dropTarget=0;fillColor=none;points=[[0,0.5],[1,0.5]];portConstraint=eastwest;" parent="F1pNL2VdmpR060pusoOi-230" vertex="1">
          <mxGeometry y="120" width="190" height="40" as="geometry" />
        </mxCell>
        <mxCell id="F1pNL2VdmpR060pusoOi-238" value="&lt;span style=&quot;font-size: 18px;&quot;&gt;TD = 12 horas&lt;/span&gt;" style="shape=partialRectangle;html=1;whiteSpace=wrap;connectable=0;strokeColor=inherit;overflow=hidden;fillColor=none;top=0;left=0;bottom=0;right=0;pointerEvents=1;align=left;" parent="F1pNL2VdmpR060pusoOi-237" vertex="1">
          <mxGeometry width="190" height="40" as="geometry">
            <mxRectangle width="190" height="40" as="alternateBounds" />
          </mxGeometry>
        </mxCell>
        <mxCell id="F1pNL2VdmpR060pusoOi-239" value="" style="shape=tableRow;horizontal=0;startSize=0;swimlaneHead=0;swimlaneBody=0;strokeColor=inherit;top=0;left=0;bottom=0;right=0;collapsible=0;dropTarget=0;fillColor=none;points=[[0,0.5],[1,0.5]];portConstraint=eastwest;" parent="F1pNL2VdmpR060pusoOi-230" vertex="1">
          <mxGeometry y="160" width="190" height="40" as="geometry" />
        </mxCell>
        <mxCell id="F1pNL2VdmpR060pusoOi-240" value="&lt;font style=&quot;font-size: 18px;&quot;&gt;TURNOS = 1&lt;/font&gt;" style="shape=partialRectangle;html=1;whiteSpace=wrap;connectable=0;strokeColor=inherit;overflow=hidden;fillColor=none;top=0;left=0;bottom=0;right=0;pointerEvents=1;align=left;" parent="F1pNL2VdmpR060pusoOi-239" vertex="1">
          <mxGeometry width="190" height="40" as="geometry">
            <mxRectangle width="190" height="40" as="alternateBounds" />
          </mxGeometry>
        </mxCell>
        <mxCell id="F1pNL2VdmpR060pusoOi-241" value="" style="shape=tableRow;horizontal=0;startSize=0;swimlaneHead=0;swimlaneBody=0;strokeColor=inherit;top=0;left=0;bottom=0;right=0;collapsible=0;dropTarget=0;fillColor=none;points=[[0,0.5],[1,0.5]];portConstraint=eastwest;" parent="F1pNL2VdmpR060pusoOi-230" vertex="1">
          <mxGeometry y="200" width="190" height="40" as="geometry" />
        </mxCell>
        <mxCell id="F1pNL2VdmpR060pusoOi-242" value="&lt;font style=&quot;font-size: 18px;&quot;&gt;OPERARIOS = 1&lt;/font&gt;" style="shape=partialRectangle;html=1;whiteSpace=wrap;connectable=0;strokeColor=inherit;overflow=hidden;fillColor=none;top=0;left=0;bottom=0;right=0;pointerEvents=1;align=left;" parent="F1pNL2VdmpR060pusoOi-241" vertex="1">
          <mxGeometry width="190" height="40" as="geometry">
            <mxRectangle width="190" height="40" as="alternateBounds" />
          </mxGeometry>
        </mxCell>
        <mxCell id="F1pNL2VdmpR060pusoOi-243" value="" style="shape=tableRow;horizontal=0;startSize=0;swimlaneHead=0;swimlaneBody=0;strokeColor=inherit;top=0;left=0;bottom=0;right=0;collapsible=0;dropTarget=0;fillColor=none;points=[[0,0.5],[1,0.5]];portConstraint=eastwest;" parent="F1pNL2VdmpR060pusoOi-230" vertex="1">
          <mxGeometry y="240" width="190" height="40" as="geometry" />
        </mxCell>
        <mxCell id="F1pNL2VdmpR060pusoOi-244" value="&lt;font style=&quot;font-size: 18px;&quot;&gt;CANT MAQUINA: 0&lt;/font&gt;" style="shape=partialRectangle;html=1;whiteSpace=wrap;connectable=0;strokeColor=inherit;overflow=hidden;fillColor=none;top=0;left=0;bottom=0;right=0;pointerEvents=1;align=left;" parent="F1pNL2VdmpR060pusoOi-243" vertex="1">
          <mxGeometry width="190" height="40" as="geometry">
            <mxRectangle width="190" height="40" as="alternateBounds" />
          </mxGeometry>
        </mxCell>
        <mxCell id="F1pNL2VdmpR060pusoOi-275" value="" style="shape=table;startSize=0;container=1;collapsible=0;childLayout=tableLayout;" parent="1" vertex="1">
          <mxGeometry x="2710" y="1010" width="190" height="280" as="geometry" />
        </mxCell>
        <mxCell id="F1pNL2VdmpR060pusoOi-276" value="" style="shape=tableRow;horizontal=0;startSize=0;swimlaneHead=0;swimlaneBody=0;strokeColor=inherit;top=0;left=0;bottom=0;right=0;collapsible=0;dropTarget=0;fillColor=none;points=[[0,0.5],[1,0.5]];portConstraint=eastwest;" parent="F1pNL2VdmpR060pusoOi-275" vertex="1">
          <mxGeometry width="190" height="40" as="geometry" />
        </mxCell>
        <mxCell id="F1pNL2VdmpR060pusoOi-277" value="&lt;font style=&quot;font-size: 18px;&quot;&gt;TC = 45 s/u&lt;/font&gt;" style="shape=partialRectangle;html=1;whiteSpace=wrap;connectable=0;strokeColor=inherit;overflow=hidden;fillColor=none;top=0;left=0;bottom=0;right=0;pointerEvents=1;align=left;" parent="F1pNL2VdmpR060pusoOi-276" vertex="1">
          <mxGeometry width="190" height="40" as="geometry">
            <mxRectangle width="190" height="40" as="alternateBounds" />
          </mxGeometry>
        </mxCell>
        <mxCell id="F1pNL2VdmpR060pusoOi-278" value="" style="shape=tableRow;horizontal=0;startSize=0;swimlaneHead=0;swimlaneBody=0;strokeColor=inherit;top=0;left=0;bottom=0;right=0;collapsible=0;dropTarget=0;fillColor=none;points=[[0,0.5],[1,0.5]];portConstraint=eastwest;" parent="F1pNL2VdmpR060pusoOi-275" vertex="1">
          <mxGeometry y="40" width="190" height="40" as="geometry" />
        </mxCell>
        <mxCell id="F1pNL2VdmpR060pusoOi-279" value="&lt;font style=&quot;font-size: 18px;&quot;&gt;TCP = 10 s/u&lt;/font&gt;" style="shape=partialRectangle;html=1;whiteSpace=wrap;connectable=0;strokeColor=inherit;overflow=hidden;fillColor=none;top=0;left=0;bottom=0;right=0;pointerEvents=1;align=left;" parent="F1pNL2VdmpR060pusoOi-278" vertex="1">
          <mxGeometry width="190" height="40" as="geometry">
            <mxRectangle width="190" height="40" as="alternateBounds" />
          </mxGeometry>
        </mxCell>
        <mxCell id="F1pNL2VdmpR060pusoOi-280" value="" style="shape=tableRow;horizontal=0;startSize=0;swimlaneHead=0;swimlaneBody=0;strokeColor=inherit;top=0;left=0;bottom=0;right=0;collapsible=0;dropTarget=0;fillColor=none;points=[[0,0.5],[1,0.5]];portConstraint=eastwest;" parent="F1pNL2VdmpR060pusoOi-275" vertex="1">
          <mxGeometry y="80" width="190" height="40" as="geometry" />
        </mxCell>
        <mxCell id="F1pNL2VdmpR060pusoOi-281" value="&lt;font style=&quot;font-size: 18px;&quot;&gt;DISP =99,27%&lt;/font&gt;" style="shape=partialRectangle;html=1;whiteSpace=wrap;connectable=0;strokeColor=inherit;overflow=hidden;fillColor=none;top=0;left=0;bottom=0;right=0;pointerEvents=1;align=left;" parent="F1pNL2VdmpR060pusoOi-280" vertex="1">
          <mxGeometry width="190" height="40" as="geometry">
            <mxRectangle width="190" height="40" as="alternateBounds" />
          </mxGeometry>
        </mxCell>
        <mxCell id="F1pNL2VdmpR060pusoOi-282" value="" style="shape=tableRow;horizontal=0;startSize=0;swimlaneHead=0;swimlaneBody=0;strokeColor=inherit;top=0;left=0;bottom=0;right=0;collapsible=0;dropTarget=0;fillColor=none;points=[[0,0.5],[1,0.5]];portConstraint=eastwest;" parent="F1pNL2VdmpR060pusoOi-275" vertex="1">
          <mxGeometry y="120" width="190" height="40" as="geometry" />
        </mxCell>
        <mxCell id="F1pNL2VdmpR060pusoOi-283" value="&lt;font style=&quot;font-size: 18px;&quot;&gt;TD = 12 horas&lt;/font&gt;" style="shape=partialRectangle;html=1;whiteSpace=wrap;connectable=0;strokeColor=inherit;overflow=hidden;fillColor=none;top=0;left=0;bottom=0;right=0;pointerEvents=1;align=left;" parent="F1pNL2VdmpR060pusoOi-282" vertex="1">
          <mxGeometry width="190" height="40" as="geometry">
            <mxRectangle width="190" height="40" as="alternateBounds" />
          </mxGeometry>
        </mxCell>
        <mxCell id="F1pNL2VdmpR060pusoOi-284" value="" style="shape=tableRow;horizontal=0;startSize=0;swimlaneHead=0;swimlaneBody=0;strokeColor=inherit;top=0;left=0;bottom=0;right=0;collapsible=0;dropTarget=0;fillColor=none;points=[[0,0.5],[1,0.5]];portConstraint=eastwest;" parent="F1pNL2VdmpR060pusoOi-275" vertex="1">
          <mxGeometry y="160" width="190" height="40" as="geometry" />
        </mxCell>
        <mxCell id="F1pNL2VdmpR060pusoOi-285" value="&lt;font style=&quot;font-size: 18px;&quot;&gt;TURNOS = 2&lt;/font&gt;" style="shape=partialRectangle;html=1;whiteSpace=wrap;connectable=0;strokeColor=inherit;overflow=hidden;fillColor=none;top=0;left=0;bottom=0;right=0;pointerEvents=1;align=left;" parent="F1pNL2VdmpR060pusoOi-284" vertex="1">
          <mxGeometry width="190" height="40" as="geometry">
            <mxRectangle width="190" height="40" as="alternateBounds" />
          </mxGeometry>
        </mxCell>
        <mxCell id="F1pNL2VdmpR060pusoOi-286" value="" style="shape=tableRow;horizontal=0;startSize=0;swimlaneHead=0;swimlaneBody=0;strokeColor=inherit;top=0;left=0;bottom=0;right=0;collapsible=0;dropTarget=0;fillColor=none;points=[[0,0.5],[1,0.5]];portConstraint=eastwest;" parent="F1pNL2VdmpR060pusoOi-275" vertex="1">
          <mxGeometry y="200" width="190" height="40" as="geometry" />
        </mxCell>
        <mxCell id="F1pNL2VdmpR060pusoOi-287" value="&lt;font style=&quot;font-size: 18px;&quot;&gt;OPERARIOS = 1&lt;/font&gt;" style="shape=partialRectangle;html=1;whiteSpace=wrap;connectable=0;strokeColor=inherit;overflow=hidden;fillColor=none;top=0;left=0;bottom=0;right=0;pointerEvents=1;align=left;" parent="F1pNL2VdmpR060pusoOi-286" vertex="1">
          <mxGeometry width="190" height="40" as="geometry">
            <mxRectangle width="190" height="40" as="alternateBounds" />
          </mxGeometry>
        </mxCell>
        <mxCell id="F1pNL2VdmpR060pusoOi-288" value="" style="shape=tableRow;horizontal=0;startSize=0;swimlaneHead=0;swimlaneBody=0;strokeColor=inherit;top=0;left=0;bottom=0;right=0;collapsible=0;dropTarget=0;fillColor=none;points=[[0,0.5],[1,0.5]];portConstraint=eastwest;" parent="F1pNL2VdmpR060pusoOi-275" vertex="1">
          <mxGeometry y="240" width="190" height="40" as="geometry" />
        </mxCell>
        <mxCell id="F1pNL2VdmpR060pusoOi-289" value="&lt;font style=&quot;font-size: 18px;&quot;&gt;CANT MAQUINA: 1&lt;/font&gt;" style="shape=partialRectangle;html=1;whiteSpace=wrap;connectable=0;strokeColor=inherit;overflow=hidden;fillColor=none;top=0;left=0;bottom=0;right=0;pointerEvents=1;align=left;" parent="F1pNL2VdmpR060pusoOi-288" vertex="1">
          <mxGeometry width="190" height="40" as="geometry">
            <mxRectangle width="190" height="40" as="alternateBounds" />
          </mxGeometry>
        </mxCell>
        <mxCell id="F1pNL2VdmpR060pusoOi-290" value="&lt;font style=&quot;font-size: 18px;&quot;&gt;TC = Tiempo de ciclo, TCP= Tiempo de Cambio de Producto, DISP = Disponibilidad, TD = Tiempo de trabajo disponible al dia&lt;/font&gt;" style="text;html=1;align=left;verticalAlign=middle;whiteSpace=wrap;rounded=0;" parent="1" vertex="1">
          <mxGeometry x="220" y="1500" width="1100" height="110" as="geometry" />
        </mxCell>
        <mxCell id="F1pNL2VdmpR060pusoOi-292" value="" style="verticalLabelPosition=bottom;html=1;verticalAlign=top;strokeWidth=2;shape=mxgraph.lean_mapping.timeline2;dx1=0;dy1=1;dx2=30;dy2=0;dx3=261.841;dy3=0.59;dx4=512.716;dy4=0.278;dx5=744.534;dy5=0.615;dy6=0;" parent="1" vertex="1">
          <mxGeometry x="190" y="1380" width="1020" height="90" as="geometry" />
        </mxCell>
        <mxCell id="F1pNL2VdmpR060pusoOi-293" value="" style="verticalLabelPosition=bottom;html=1;verticalAlign=top;strokeWidth=2;shape=mxgraph.lean_mapping.timeline2;dx1=0;dy1=1;dx2=30;dy2=0;dx3=261.841;dy3=0.59;dx4=546.958;dy4=0;dx5=789.382;dy5=0.598;dy6=0;" parent="1" vertex="1">
          <mxGeometry x="1180" y="1380" width="1040" height="90" as="geometry" />
        </mxCell>
        <mxCell id="F1pNL2VdmpR060pusoOi-298" value="" style="shape=flexArrow;html=1;rounded=0;exitX=0.5;exitY=0;exitDx=0;exitDy=0;entryX=0.5;entryY=1;entryDx=0;entryDy=0;" parent="1" source="F1pNL2VdmpR060pusoOi-67" target="F1pNL2VdmpR060pusoOi-2" edge="1">
          <mxGeometry width="100" height="100" relative="1" as="geometry">
            <mxPoint x="2940" y="650" as="sourcePoint" />
            <mxPoint x="3040" y="550" as="targetPoint" />
          </mxGeometry>
        </mxCell>
        <mxCell id="F1pNL2VdmpR060pusoOi-309" style="edgeStyle=orthogonalEdgeStyle;rounded=0;orthogonalLoop=1;jettySize=auto;html=1;entryX=0.165;entryY=-0.069;entryDx=0;entryDy=0;entryPerimeter=0;" parent="1" source="F1pNL2VdmpR060pusoOi-9" target="F1pNL2VdmpR060pusoOi-67" edge="1">
          <mxGeometry relative="1" as="geometry">
            <Array as="points">
              <mxPoint x="1555" y="670" />
              <mxPoint x="2728" y="670" />
            </Array>
          </mxGeometry>
        </mxCell>
        <mxCell id="F1pNL2VdmpR060pusoOi-317" value="&lt;span style=&quot;font-size: 24px;&quot;&gt;9 h&lt;/span&gt;" style="text;html=1;align=center;verticalAlign=middle;whiteSpace=wrap;rounded=0;" parent="1" vertex="1">
          <mxGeometry x="260" y="1340" width="150" height="30" as="geometry" />
        </mxCell>
        <mxCell id="F1pNL2VdmpR060pusoOi-318" value="&lt;span style=&quot;font-size: 24px;&quot;&gt;3,5 h&lt;/span&gt;" style="text;html=1;align=center;verticalAlign=middle;whiteSpace=wrap;rounded=0;" parent="1" vertex="1">
          <mxGeometry x="740" y="1340" width="150" height="30" as="geometry" />
        </mxCell>
        <mxCell id="F1pNL2VdmpR060pusoOi-319" value="&lt;font style=&quot;font-size: 24px;&quot;&gt;1,41 horas&lt;/font&gt;" style="text;html=1;align=center;verticalAlign=middle;whiteSpace=wrap;rounded=0;" parent="1" vertex="1">
          <mxGeometry x="1220" y="1340" width="180" height="30" as="geometry" />
        </mxCell>
        <mxCell id="oLYpL0TVLUquiYKN4sKW-4" value="" style="strokeWidth=2;html=1;shape=mxgraph.lean_mapping.truck_shipment;fontSize=16;" parent="1" vertex="1">
          <mxGeometry x="201" y="410" width="100" height="100" as="geometry" />
        </mxCell>
        <mxCell id="oLYpL0TVLUquiYKN4sKW-5" value="" style="verticalLabelPosition=bottom;html=1;verticalAlign=top;strokeWidth=2;shape=mxgraph.lean_mapping.inventory_box;fontSize=16;" parent="1" vertex="1">
          <mxGeometry x="200" y="519" width="100" height="90" as="geometry" />
        </mxCell>
        <mxCell id="oLYpL0TVLUquiYKN4sKW-6" value="&lt;br&gt;&lt;span style=&quot;forced-color-adjust: none; color: rgb(0, 0, 0); font-family: Helvetica; font-size: 16px; font-style: normal; font-variant-ligatures: normal; font-variant-caps: normal; font-weight: 400; letter-spacing: normal; orphans: 2; text-align: center; text-indent: 0px; text-transform: none; widows: 2; word-spacing: 0px; -webkit-text-stroke-width: 0px; white-space: normal; background-color: rgb(255, 255, 255); text-decoration-thickness: initial; text-decoration-style: initial; text-decoration-color: initial;&quot;&gt;136,4 kg&lt;/span&gt;&lt;br style=&quot;forced-color-adjust: none; color: rgb(0, 0, 0); font-family: Helvetica; font-size: 16px; font-style: normal; font-variant-ligatures: normal; font-variant-caps: normal; font-weight: 400; letter-spacing: normal; orphans: 2; text-align: center; text-indent: 0px; text-transform: none; widows: 2; word-spacing: 0px; -webkit-text-stroke-width: 0px; white-space: normal; background-color: rgb(255, 255, 255); text-decoration-thickness: initial; text-decoration-style: initial; text-decoration-color: initial;&quot;&gt;&lt;span style=&quot;forced-color-adjust: none; color: rgb(0, 0, 0); font-family: Helvetica; font-size: 16px; font-style: normal; font-variant-ligatures: normal; font-variant-caps: normal; font-weight: 400; letter-spacing: normal; orphans: 2; text-align: center; text-indent: 0px; text-transform: none; widows: 2; word-spacing: 0px; -webkit-text-stroke-width: 0px; white-space: normal; background-color: rgb(255, 255, 255); text-decoration-thickness: initial; text-decoration-style: initial; text-decoration-color: initial;&quot;&gt;24 cajas&lt;/span&gt;&lt;div&gt;&lt;br/&gt;&lt;/div&gt;" style="text;html=1;align=center;verticalAlign=middle;whiteSpace=wrap;rounded=0;" parent="1" vertex="1">
          <mxGeometry x="211" y="640" width="80" height="30" as="geometry" />
        </mxCell>
        <mxCell id="oLYpL0TVLUquiYKN4sKW-7" value="&lt;span style=&quot;font-size: 24px;&quot;&gt;1,68 h&lt;/span&gt;" style="text;html=1;align=center;verticalAlign=middle;whiteSpace=wrap;rounded=0;" parent="1" vertex="1">
          <mxGeometry x="505" y="1430" width="150" height="30" as="geometry" />
        </mxCell>
        <mxCell id="oLYpL0TVLUquiYKN4sKW-8" value="&lt;span style=&quot;font-size: 24px;&quot;&gt;1,14 h&lt;/span&gt;" style="text;html=1;align=center;verticalAlign=middle;whiteSpace=wrap;rounded=0;" parent="1" vertex="1">
          <mxGeometry x="1007.5" y="1430" width="150" height="30" as="geometry" />
        </mxCell>
        <mxCell id="oLYpL0TVLUquiYKN4sKW-9" value="&lt;font style=&quot;font-size: 24px;&quot;&gt;0,86 horas&lt;/font&gt;" style="text;html=1;align=center;verticalAlign=middle;whiteSpace=wrap;rounded=0;" parent="1" vertex="1">
          <mxGeometry x="1487.5" y="1430" width="180" height="30" as="geometry" />
        </mxCell>
        <mxCell id="oLYpL0TVLUquiYKN4sKW-11" value="" style="verticalLabelPosition=bottom;html=1;verticalAlign=top;strokeWidth=2;shape=mxgraph.lean_mapping.push_arrow;" parent="1" vertex="1">
          <mxGeometry x="2440" y="850" width="235" height="30" as="geometry" />
        </mxCell>
        <mxCell id="oLYpL0TVLUquiYKN4sKW-13" style="edgeStyle=orthogonalEdgeStyle;rounded=0;orthogonalLoop=1;jettySize=auto;html=1;" parent="1" source="oLYpL0TVLUquiYKN4sKW-12" edge="1">
          <mxGeometry relative="1" as="geometry">
            <mxPoint x="2560" y="890" as="targetPoint" />
          </mxGeometry>
        </mxCell>
        <mxCell id="oLYpL0TVLUquiYKN4sKW-12" value="" style="verticalLabelPosition=bottom;html=1;verticalAlign=top;strokeWidth=2;shape=mxgraph.lean_mapping.inventory_box;" parent="1" vertex="1">
          <mxGeometry x="2507.5" y="942" width="100" height="90" as="geometry" />
        </mxCell>
        <mxCell id="oLYpL0TVLUquiYKN4sKW-14" value="" style="verticalLabelPosition=bottom;html=1;verticalAlign=top;strokeWidth=2;shape=mxgraph.lean_mapping.push_arrow;" parent="1" vertex="1">
          <mxGeometry x="1460" y="857" width="235" height="30" as="geometry" />
        </mxCell>
        <mxCell id="oLYpL0TVLUquiYKN4sKW-16" value="" style="verticalLabelPosition=bottom;html=1;verticalAlign=top;strokeWidth=2;shape=mxgraph.lean_mapping.inventory_box;" parent="1" vertex="1">
          <mxGeometry x="1527.5" y="942" width="100" height="90" as="geometry" />
        </mxCell>
        <mxCell id="oLYpL0TVLUquiYKN4sKW-17" style="edgeStyle=orthogonalEdgeStyle;rounded=0;orthogonalLoop=1;jettySize=auto;html=1;entryX=0.5;entryY=0.83;entryDx=0;entryDy=0;entryPerimeter=0;" parent="1" source="oLYpL0TVLUquiYKN4sKW-16" target="oLYpL0TVLUquiYKN4sKW-14" edge="1">
          <mxGeometry relative="1" as="geometry" />
        </mxCell>
        <mxCell id="oLYpL0TVLUquiYKN4sKW-18" value="" style="verticalLabelPosition=bottom;html=1;verticalAlign=top;strokeWidth=2;shape=mxgraph.lean_mapping.push_arrow;" parent="1" vertex="1">
          <mxGeometry x="940" y="857" width="235" height="30" as="geometry" />
        </mxCell>
        <mxCell id="oLYpL0TVLUquiYKN4sKW-19" value="" style="verticalLabelPosition=bottom;html=1;verticalAlign=top;strokeWidth=2;shape=mxgraph.lean_mapping.inventory_box;" parent="1" vertex="1">
          <mxGeometry x="1007.5" y="942" width="100" height="90" as="geometry" />
        </mxCell>
        <mxCell id="oLYpL0TVLUquiYKN4sKW-20" style="edgeStyle=orthogonalEdgeStyle;rounded=0;orthogonalLoop=1;jettySize=auto;html=1;entryX=0.5;entryY=0.83;entryDx=0;entryDy=0;entryPerimeter=0;" parent="1" source="oLYpL0TVLUquiYKN4sKW-19" target="oLYpL0TVLUquiYKN4sKW-18" edge="1">
          <mxGeometry relative="1" as="geometry" />
        </mxCell>
        <mxCell id="oLYpL0TVLUquiYKN4sKW-21" value="" style="verticalLabelPosition=bottom;html=1;verticalAlign=top;strokeWidth=2;shape=mxgraph.lean_mapping.push_arrow;" parent="1" vertex="1">
          <mxGeometry x="462.5" y="857" width="235" height="30" as="geometry" />
        </mxCell>
        <mxCell id="oLYpL0TVLUquiYKN4sKW-22" value="" style="verticalLabelPosition=bottom;html=1;verticalAlign=top;strokeWidth=2;shape=mxgraph.lean_mapping.inventory_box;" parent="1" vertex="1">
          <mxGeometry x="530" y="942" width="100" height="90" as="geometry" />
        </mxCell>
        <mxCell id="oLYpL0TVLUquiYKN4sKW-23" style="edgeStyle=orthogonalEdgeStyle;rounded=0;orthogonalLoop=1;jettySize=auto;html=1;entryX=0.5;entryY=0.83;entryDx=0;entryDy=0;entryPerimeter=0;" parent="1" source="oLYpL0TVLUquiYKN4sKW-22" target="oLYpL0TVLUquiYKN4sKW-21" edge="1">
          <mxGeometry relative="1" as="geometry" />
        </mxCell>
        <mxCell id="oLYpL0TVLUquiYKN4sKW-27" value="" style="verticalLabelPosition=bottom;html=1;verticalAlign=top;strokeWidth=2;shape=mxgraph.lean_mapping.timeline2;dx1=0;dy1=1;dx2=30;dy2=0;dx3=261.841;dy3=0.59;dx4=509.261;dy4=0;dx5=789.382;dy5=0.598;dy6=0;" parent="1" vertex="1">
          <mxGeometry x="2190" y="1380" width="790" height="90" as="geometry" />
        </mxCell>
        <mxCell id="oLYpL0TVLUquiYKN4sKW-29" value="&lt;font style=&quot;font-size: 24px;&quot;&gt;0,86 horas&lt;/font&gt;" style="text;html=1;align=center;verticalAlign=middle;whiteSpace=wrap;rounded=0;" parent="1" vertex="1">
          <mxGeometry x="1990" y="1430" width="180" height="30" as="geometry" />
        </mxCell>
        <mxCell id="oLYpL0TVLUquiYKN4sKW-30" value="&lt;font style=&quot;font-size: 24px;&quot;&gt;11,75 horas&lt;/font&gt;" style="text;html=1;align=center;verticalAlign=middle;whiteSpace=wrap;rounded=0;" parent="1" vertex="1">
          <mxGeometry x="1750" y="1340" width="180" height="30" as="geometry" />
        </mxCell>
        <mxCell id="oLYpL0TVLUquiYKN4sKW-31" value="&lt;font style=&quot;font-size: 24px;&quot;&gt;3,05 horas&lt;/font&gt;" style="text;html=1;align=center;verticalAlign=middle;whiteSpace=wrap;rounded=0;" parent="1" vertex="1">
          <mxGeometry x="2240" y="1340" width="180" height="30" as="geometry" />
        </mxCell>
        <mxCell id="oLYpL0TVLUquiYKN4sKW-32" value="&lt;font style=&quot;font-size: 24px;&quot;&gt;2,8 horas&lt;/font&gt;" style="text;html=1;align=center;verticalAlign=middle;whiteSpace=wrap;rounded=0;" parent="1" vertex="1">
          <mxGeometry x="2495" y="1430" width="180" height="30" as="geometry" />
        </mxCell>
        <mxCell id="oLYpL0TVLUquiYKN4sKW-33" value="&lt;font style=&quot;font-size: 24px;&quot;&gt;0,26 horas&lt;/font&gt;" style="text;html=1;align=center;verticalAlign=middle;whiteSpace=wrap;rounded=0;" parent="1" vertex="1">
          <mxGeometry x="2740" y="1340" width="180" height="30" as="geometry" />
        </mxCell>
        <mxCell id="oLYpL0TVLUquiYKN4sKW-35" value="&lt;span style=&quot;color: rgb(0, 0, 0); font-family: Helvetica; font-style: normal; font-variant-ligatures: normal; font-variant-caps: normal; font-weight: 400; letter-spacing: normal; orphans: 2; text-align: left; text-indent: 0px; text-transform: none; widows: 2; word-spacing: 0px; -webkit-text-stroke-width: 0px; white-space: normal; background-color: rgb(251, 251, 251); text-decoration-thickness: initial; text-decoration-style: initial; text-decoration-color: initial; float: none; display: inline !important;&quot;&gt;0,782 kg&lt;/span&gt;" style="text;whiteSpace=wrap;html=1;fontSize=16;" parent="1" vertex="1">
          <mxGeometry x="552.25" y="1040" width="77.75" height="40" as="geometry" />
        </mxCell>
        <mxCell id="oLYpL0TVLUquiYKN4sKW-36" value="&lt;span style=&quot;color: rgb(0, 0, 0); font-family: Helvetica; font-style: normal; font-variant-ligatures: normal; font-variant-caps: normal; font-weight: 400; letter-spacing: normal; orphans: 2; text-align: left; text-indent: 0px; text-transform: none; widows: 2; word-spacing: 0px; -webkit-text-stroke-width: 0px; white-space: normal; background-color: rgb(251, 251, 251); text-decoration-thickness: initial; text-decoration-style: initial; text-decoration-color: initial; float: none; display: inline !important;&quot;&gt;0,780 kg&lt;/span&gt;" style="text;whiteSpace=wrap;html=1;fontSize=16;" parent="1" vertex="1">
          <mxGeometry x="1018.63" y="1040" width="77.75" height="40" as="geometry" />
        </mxCell>
        <mxCell id="oLYpL0TVLUquiYKN4sKW-37" value="&lt;span style=&quot;color: rgb(0, 0, 0); font-family: Helvetica; font-style: normal; font-variant-ligatures: normal; font-variant-caps: normal; font-weight: 400; letter-spacing: normal; orphans: 2; text-align: left; text-indent: 0px; text-transform: none; widows: 2; word-spacing: 0px; -webkit-text-stroke-width: 0px; white-space: normal; background-color: rgb(251, 251, 251); text-decoration-thickness: initial; text-decoration-style: initial; text-decoration-color: initial; float: none; display: inline !important;&quot;&gt;0,780 kg&lt;/span&gt;" style="text;whiteSpace=wrap;html=1;fontSize=16;" parent="1" vertex="1">
          <mxGeometry x="1538.6200000000001" y="1040" width="77.75" height="40" as="geometry" />
        </mxCell>
        <mxCell id="oLYpL0TVLUquiYKN4sKW-38" value="&lt;span style=&quot;color: rgb(0, 0, 0); font-family: Helvetica; font-style: normal; font-variant-ligatures: normal; font-variant-caps: normal; font-weight: 400; letter-spacing: normal; orphans: 2; text-align: left; text-indent: 0px; text-transform: none; widows: 2; word-spacing: 0px; -webkit-text-stroke-width: 0px; white-space: normal; background-color: rgb(251, 251, 251); text-decoration-thickness: initial; text-decoration-style: initial; text-decoration-color: initial; float: none; display: inline !important;&quot;&gt;0,780 kg&lt;/span&gt;" style="text;whiteSpace=wrap;html=1;fontSize=16;" parent="1" vertex="1">
          <mxGeometry x="2033.63" y="1040" width="77.75" height="40" as="geometry" />
        </mxCell>
        <mxCell id="oLYpL0TVLUquiYKN4sKW-39" value="&lt;span style=&quot;color: rgb(0, 0, 0); font-family: Helvetica; font-style: normal; font-variant-ligatures: normal; font-variant-caps: normal; font-weight: 400; letter-spacing: normal; orphans: 2; text-align: left; text-indent: 0px; text-transform: none; widows: 2; word-spacing: 0px; -webkit-text-stroke-width: 0px; white-space: normal; background-color: rgb(251, 251, 251); text-decoration-thickness: initial; text-decoration-style: initial; text-decoration-color: initial; float: none; display: inline !important;&quot;&gt;12,8 kg&lt;/span&gt;" style="text;whiteSpace=wrap;html=1;fontSize=16;" parent="1" vertex="1">
          <mxGeometry x="2518.62" y="1040" width="77.75" height="40" as="geometry" />
        </mxCell>
      </root>
    </mxGraphModel>
  </diagram>
</mxfile>
